<svg xmlns="http://www.w3.org/2000/svg" version="1.1" xmlns:xlink="http://www.w3.org/1999/xlink" xmlns:svgjs="http://svgjs.dev/svgjs" width="500px" height="500px"><svg width="500px" height="500px" viewBox="0 0 800 800" version="1.1" xmlns="http://www.w3.org/2000/svg" xmlns:xlink="http://www.w3.org/1999/xlink" xml:space="preserve" xmlns:serif="http://www.serif.com/" style="fill-rule:evenodd;clip-rule:evenodd;stroke-linecap:round;stroke-linejoin:round;stroke-miterlimit:1.5;">
    <g transform="matrix(0.965517,0,0,0.977578,22.2139,14.0541)">
        <rect x="139.855" y="142.029" width="504.348" height="484.783" style="fill:rgb(51,123,204);"></rect>
    </g>
    <g transform="matrix(0.900299,0.435271,-0.435271,0.900299,165.853,0.811867)">
        <g transform="matrix(0.567168,0.626895,-0.626612,0.566912,392.139,-77.8175)">
            <path d="M179.041,89.52L298.401,130.018L362.345,254.352C362.345,254.352 357.371,317.584 368.739,327.531C380.107,337.478 499.116,438.343 499.116,438.343L508.224,503.138L485.384,539.327L295.56,393.606L176.909,369.449L83.126,224.512L102.309,124.334L179.041,89.52Z" style="fill:rgb(94,191,64);stroke:black;stroke-width:1.18px;"></path>
        </g>
        <g transform="matrix(0.893313,0,0,0.893313,12.1832,39.4617)">
            <path d="M333.087,541.195C333.087,519.595 333.392,497.994 333.024,476.41C332.323,435.504 331.678,394.582 329.894,353.716C329.581,346.554 324.909,338.785 320.349,332.756C307.645,316.027 293.1,300.664 280.767,283.692C248.482,239.297 243.248,190.994 262.636,139.916C280.624,92.523 307.671,51.741 351.768,24.839C409.186,-10.188 470.536,1.244 510.95,57.407C548.901,110.153 555.864,168.968 537.516,231.115C532.074,251.458 523.224,270.73 511.342,288.115C495.111,310.713 477.921,332.59 461.681,355.169C458.61,359.682 456.926,364.995 456.835,370.455C456.556,430.702 458.451,491.012 456.277,551.175C455.137,582.77 447.772,681.931 447.772,681.931C447.772,681.931 332.06,735.549 331.426,721.934C330.701,661.691 331.095,601.433 331.095,541.18L333.087,541.195ZM372.06,680.989C372.326,697.379 406.229,688.197 406.79,667.792C408.522,604.754 409.937,541.701 410.495,478.647C410.764,447.976 408.355,417.293 408.066,386.61C407.753,353.5 414.437,322.448 437.451,296.656C445.377,287.773 451.819,277.59 459.383,268.372C476.704,247.286 486.803,223.1 493.233,196.71C498.356,177.138 499.335,156.711 496.106,136.739C492.876,116.767 485.511,97.69 474.482,80.73C453.213,46.796 418.145,36.274 382.875,52.651C367.285,59.752 353.547,70.361 342.732,83.647C322.318,108.939 308.437,138.864 302.315,170.785C299.347,184.13 299.091,197.934 301.562,211.379C304.033,224.824 309.182,237.634 316.701,249.051C323.404,259.601 330.664,269.785 338.452,279.561C355.799,301.049 372.521,322.587 369.211,352.672C369.238,353.241 369.351,353.799 369.544,354.334C378.367,399.53 382.909,445.457 383.109,491.507C384.279,561.985 370.883,610.513 372.06,680.989Z" style="fill-rule:nonzero;"></path>
        </g>
    </g>
    <g id="SvgjsG1029">
        <path d="M762.319,46.377L41.304,46.377L41.304,747.101L762.319,747.101L762.319,675.404L736.957,613.749L762.319,591.231L762.319,46.377ZM644.203,152.899L157.246,152.899L157.246,626.812L644.203,626.812L644.203,152.899Z" style="fill:rgb(148,114,90);"></path>
        <path d="M7.324,689.514C-3.036,737.619 15.888,769.351 62.06,781.317C71.96,783.842 82.141,785.087 92.357,785.025C102.513,784.968 112.642,783.986 122.622,782.103C142.477,778.491 158.27,767.713 171.189,757.217C220.731,794.951 272.478,781.916 312.506,765.71C332.019,778.18 354.748,784.675 377.905,784.393C400.879,784 421.529,775.205 440.979,757.523C481.222,780.139 521.528,780.925 560.838,759.837C601.269,779.938 635.329,780.273 667.737,760.92C688.949,773.111 707.751,776.733 726.769,772.292C766.802,762.965 794.683,717.207 786.429,674.362C782.323,653.648 772.881,634.366 759.037,618.419C785.72,603.013 798.429,582.007 797.878,554.338C797.351,527.928 786.798,505.547 765.629,486.012L766.683,484.912C768.709,482.796 770.438,480.988 772.139,479.158C798.065,451.279 798.731,414.816 773.835,386.258C772.263,384.438 770.63,382.649 768.934,380.781L768.489,380.291C781.916,366.579 793.978,350.623 794.841,327.978C795.679,305.97 787.152,288.801 768.8,275.554C784.944,256.945 792.096,239.426 791.895,219.162C791.986,208.887 789.878,198.711 785.725,189.315C781.562,179.92 775.444,171.521 767.775,164.683C799.238,124.966 797.744,81.401 763.425,41.713C728.101,0.861 670.022,-1.692 621.528,35.189C585.863,13.101 550.079,13.312 515.104,35.818C500.422,24.165 483.301,21.603 468.374,20.663C444.702,19.166 424.356,25.816 407.893,40.417C365.23,10.737 331.126,10.4 287.577,39.2C251.325,9.589 210.278,8.992 174.217,37.499C155.199,17.27 133.548,8.781 108.131,11.617C78.142,14.937 55.231,24.935 38.086,42.19C22.211,58.169 13.263,80.169 12.206,105.815C11.09,132.959 11.965,158.907 33.86,177.967C17.052,194.953 7.166,217.587 6.129,241.462C4.67,267.011 18.316,285.037 35.354,303.921C21.765,322.055 13.522,343.63 11.556,366.202C9.295,392.653 23.148,410.927 39.036,426.569C14.049,462.321 13.549,497.945 37.545,532.503C10.531,570.865 9.748,599.88 34.756,637.911C20.938,650.424 12.194,666.913 7.324,689.514ZM62.236,159.531C41.831,134.78 49.125,108.765 60.035,84.334C68.578,65.218 85.603,56.622 115.236,56.462L115.363,56.462C122.415,57.044 129.303,58.898 135.695,61.932C137.664,62.712 139.616,63.486 141.556,64.196C143.825,65.148 145.982,66.345 147.989,67.768C150.366,69.44 152.921,70.845 155.607,71.953C176.205,79.65 178.028,79.952 189.086,68.18C190.07,67.133 191.155,65.979 192.368,64.721C210.771,45.643 240.841,45.404 262.319,64.155C267.208,68.425 272.245,72.475 277.575,76.761C280.109,78.801 282.706,80.889 285.388,83.08C286.027,83.6 286.839,83.856 287.66,83.797C288.481,83.738 289.25,83.37 289.809,82.766C332.418,36.547 374.603,53.777 413.845,79.288C414.216,79.532 414.637,79.696 415.077,79.77C415.518,79.844 415.967,79.825 416.398,79.715C416.832,79.606 417.234,79.408 417.587,79.135C417.939,78.861 418.228,78.517 418.442,78.126C428.079,60.389 443.991,53.239 470.034,55.062C475.313,55.551 480.551,56.391 485.72,57.578C488.302,58.106 490.884,58.631 493.475,59.081C496.11,59.215 498.659,60.103 500.81,61.638C502.96,63.174 504.628,65.293 505.61,67.746C509.044,75.273 513.327,77.229 516.321,77.546C519.21,77.827 523.626,76.917 528.22,70.739C537.202,58.656 550.031,53.249 569.82,53.205L570.012,53.205C578.63,53.424 587.224,54.265 595.722,55.719C598.812,56.169 601.907,56.619 605.016,57.018C605.054,57.896 605.087,58.735 605.116,59.534C605.126,62.687 605.432,65.833 606.022,68.932C606.323,71.029 607.138,73.018 608.402,74.72C609.667,76.421 611.329,77.781 613.25,78.678C615.305,79.34 617.495,79.484 619.617,79.094C621.744,78.705 623.737,77.794 625.423,76.446C627.507,74.943 629.447,73.252 631.219,71.393C632.163,70.45 633.107,69.507 634.103,68.651C646.304,57.997 661.193,50.882 677.15,48.073C684.738,46.649 692.537,46.799 700.072,48.513C707.602,50.227 714.697,53.468 720.925,58.037C727.622,62.993 733.25,69.252 737.461,76.439C741.677,83.625 744.393,91.59 745.451,99.854C748.508,122.951 736.537,139.941 723.147,154.857C716.661,162.089 714.218,167.96 715.449,173.361C716.637,178.59 721.298,182.815 729.701,186.283C742.534,191.59 751.023,200.063 753.595,210.15C756.192,220.349 752.714,232.028 743.799,243.045C740.354,247.512 736.354,251.52 731.895,254.971C719.262,264.296 716.58,275.406 723.693,288.954C724.072,289.694 724.728,290.258 725.519,290.526C727.229,291.105 729.016,291.649 730.836,292.203C734.812,293.306 738.697,294.699 742.472,296.369C751.636,300.714 757.677,306.993 759.938,314.523C762.232,322.176 760.584,330.925 755.171,339.832C747.885,352.613 736.517,362.58 722.893,368.129C722.333,368.353 721.854,368.723 721.499,369.204C721.145,369.686 720.925,370.255 720.877,370.852L719.114,391.368C719.061,391.965 719.176,392.565 719.444,393.1C719.717,393.634 720.129,394.084 720.642,394.399C721.399,394.861 722.069,395.342 722.697,395.785C724.129,396.942 725.768,397.816 727.526,398.366C733.097,399.536 738.295,402.057 742.659,405.708C747.028,409.361 750.424,414.034 752.56,419.313C754.323,424.573 754.769,430.191 753.849,435.665C752.929,441.139 750.678,446.305 747.291,450.7C745.811,452.791 744.297,454.857 742.778,456.923C735.004,467.521 726.965,478.479 722.999,493.504C722.836,494.122 722.855,494.774 723.066,495.372C723.267,495.976 723.646,496.503 724.153,496.891C725.246,497.734 726.352,498.635 727.511,499.559C730.213,501.725 732.996,503.957 736.062,505.978C751.837,516.378 760.479,532.053 759.775,548.996C759.071,565.94 749.169,580.81 732.604,589.854C729.6,591.492 726.534,593.016 723.468,594.544C719.861,596.335 716.134,598.189 712.532,600.22C706.314,603.732 702.889,608.484 702.884,613.61C702.884,618.611 706.184,623.243 712.177,626.635C730.826,637.183 740.862,654.707 743.76,681.772C744.608,687.962 744.005,694.266 741.993,700.182C739.986,706.093 736.623,711.459 732.177,715.851C727.372,720.278 721.61,723.545 715.344,725.394C709.073,727.248 702.462,727.631 696.019,726.525C689.159,725.528 682.189,724.891 675.416,724.283C671.559,723.928 667.703,723.578 663.851,723.162C652.22,721.902 650.889,730.822 650.022,736.714L650.022,736.747C631.559,742.697 611.804,743.401 592.968,738.774C583.957,736.508 576.172,734.549 571.971,725.749C571.219,723.981 570.06,722.424 568.584,721.207C567.104,719.99 565.356,719.147 563.483,718.745C561.375,718.453 559.229,718.668 557.217,719.368C555.21,720.067 553.389,721.226 551.919,722.764C539.66,734.371 523.703,736.819 511.171,737.648C498.52,738.137 485.849,737.495 473.313,735.717C469.22,735.406 465.264,734.103 461.79,731.914C458.319,729.725 455.432,726.721 453.389,723.162C451.154,719.947 448.283,717.222 444.95,715.162C443.717,714.28 442.491,713.404 441.382,712.469C440.755,711.943 439.954,711.674 439.136,711.713C438.319,711.756 437.545,712.105 436.98,712.695C407.321,743.372 377.58,751.703 343.385,738.884C336.76,736.249 330.594,732.57 325.13,727.99C316.75,721.212 311.016,718.98 305.951,720.546C300.885,722.113 297.348,727.219 294.213,737.6C294.026,738.036 293.801,738.457 293.541,738.855L293.273,739.305C271.355,745.279 247.957,750.592 223.587,746.074C204.823,742.616 187.552,737.72 182.399,716.45C181.624,714.343 180.058,712.618 178.034,711.646C177.269,711.162 176.529,710.635 175.818,710.074C175.241,709.605 174.521,709.346 173.777,709.346C173.262,709.346 172.754,709.471 172.297,709.71C168.93,711.444 165.556,713.174 162.175,714.889C154.736,718.683 147.046,722.606 139.556,726.635C117.43,738.932 91.417,742.223 66.927,735.828C50.037,731.593 44.352,724.192 44.412,706.553C44.635,699.722 45.409,692.92 46.726,686.213L47.239,683.133C49.962,666.568 59.083,656.292 75.127,651.717C76.661,651.229 78.143,650.587 79.551,649.806L80.025,649.562C80.831,649.107 81.513,648.455 82.01,647.674C82.261,647.339 82.597,646.893 83.094,646.285C83.549,645.725 83.804,645.03 83.819,644.311C83.835,643.588 83.609,642.884 83.179,642.304C81.403,639.928 79.504,637.566 77.589,635.186C73.16,630.012 69.214,624.446 65.801,618.549C61.4,610.314 56.803,600.628 56.231,591.238C55.899,581.04 57.896,570.893 62.069,561.576C65.019,555.622 68.797,550.117 73.291,545.226C75.265,542.841 77.309,540.378 79.183,537.849C79.583,537.313 79.806,536.666 79.821,535.995C79.835,535.325 79.641,534.668 79.265,534.113C50.184,491.224 51.471,452.678 82.799,428.333C83.406,427.858 83.825,427.186 83.979,426.431C84.134,425.676 84.014,424.891 83.642,424.214C83.167,423.356 82.698,422.463 82.239,421.557C81.134,419.303 79.879,417.121 78.481,415.033C76.017,411.506 73.451,408.047 70.873,404.585C66.496,398.69 61.972,392.591 58.12,386.309C48.358,370.374 51.911,334.792 64.566,321.777C67.21,319.56 70.236,317.843 73.495,316.711C75.514,315.834 77.799,314.844 80.145,313.63C80.554,313.419 80.913,313.123 81.199,312.762C81.484,312.401 81.689,311.984 81.8,311.537C81.91,311.091 81.924,310.625 81.84,310.172C81.757,309.72 81.577,309.291 81.314,308.914C78.607,305.002 75.998,301.157 73.432,297.372C67.886,289.197 62.648,281.478 56.985,273.91C34.948,244.453 36.168,218.155 60.824,191.141C65.027,187.038 67.511,181.49 67.773,175.623C68.035,169.755 66.056,164.007 62.236,159.545L62.236,159.531Z" style="fill-rule:nonzero;"></path>
        <path d="M132.973,633.801C135.887,644.244 143.848,650.065 155.396,650.194C160.469,650.256 165.54,650.333 170.608,650.424C179.654,650.577 188.913,650.735 198.17,650.735C202.215,650.735 206.255,650.702 210.29,650.635C253.365,649.863 297.121,648.905 339.45,647.981L389.41,646.893C389.976,646.884 390.526,646.726 391.011,646.434C391.492,646.141 391.891,645.729 392.165,645.236C402.855,645.236 413.554,645.265 424.263,645.313C450.391,645.399 477.399,645.485 503.971,645.126C550.434,644.493 588.398,643.406 623.449,641.715C627.784,641.509 642.663,640.177 651.995,631.871C659.392,625.428 665.241,617.404 669.126,608.402C673.006,599.396 674.812,589.629 674.414,579.832C674.026,552.982 674.194,525.657 674.357,499.234C674.491,477.017 674.635,454.043 674.443,431.436C674.204,402.825 673.169,372.176 671.262,337.766C670.108,316.893 669.887,295.585 669.691,274.984C669.293,236.311 668.881,196.315 662.299,157.13C659.277,139.158 656.034,134.529 637.394,133.734C634.984,133.634 632.589,133.687 630.275,133.734C628.843,133.769 627.406,133.819 625.974,133.797C609.749,133.745 593.528,133.68 577.308,133.602C544.053,133.454 509.686,133.288 475.84,133.332C379.217,133.404 278.389,133.611 167.574,133.96C151.224,134.014 141.037,142.343 137.268,158.717C135.68,165.723 134.742,172.861 134.463,180.039C134.044,189.905 133.625,199.772 133.205,209.641C131.734,243.283 130.216,278.066 129.546,312.318C128.382,371.937 128.125,432.552 127.873,491.487C127.716,528.733 127.967,566.745 128.65,607.698C128.963,616.546 130.416,625.322 132.973,633.801ZM627.966,390.166C628.326,458.454 628.69,529.035 624.79,598.778L175.129,615.157L171.655,168.09L630.448,174.454C630.52,174.793 630.587,175.123 630.659,175.444C631.051,176.914 631.262,178.428 631.286,179.95C627.238,249.957 627.612,321.235 627.966,390.166Z" style="fill-rule:nonzero;"></path>
    </g>
</svg><style>@media (prefers-color-scheme: light) { :root { filter: none; } }
@media (prefers-color-scheme: dark) { :root { filter: none; } }
</style></svg>